<svg xmlns="http://www.w3.org/2000/svg" version="1.1" xmlns:xlink="http://www.w3.org/1999/xlink" xmlns:svgjs="http://svgjs.dev/svgjs" width="1000" height="193" viewBox="0 0 1000 193"><g transform="matrix(1,0,0,1,-0.3104819265368519,-0.5295760311776405)"><svg viewBox="0 0 300 58" data-background-color="#ffffff" preserveAspectRatio="xMidYMid meet" height="193" width="1000" xmlns="http://www.w3.org/2000/svg" xmlns:xlink="http://www.w3.org/1999/xlink"><g id="tight-bounds" transform="matrix(1,0,0,1,0.09314457796105557,0.15914966995151758)"><svg viewBox="0 0 299.8137108440779 57.68169999999999" height="57.68169999999999" width="299.8137108440779"><g><svg viewBox="0 0 299.8137108440779 57.68169999999999" height="57.68169999999999" width="299.8137108440779"><g><svg viewBox="0 0 299.8137108440779 57.68169999999999" height="57.68169999999999" width="299.8137108440779"><g id="textblocktransform"><svg viewBox="0 0 299.8137108440779 57.68169999999999" height="57.68169999999999" width="299.8137108440779" id="textblock"><g><svg viewBox="0 0 299.8137108440779 57.68169999999999" height="57.68169999999999" width="299.8137108440779"><g><svg><g></g><g></g></svg></g><g><svg><g><svg></svg></g><g></g></svg></g><g id="text-0"><svg viewBox="0 0 299.8137108440779 57.68169999999999" height="57.68169999999999" width="299.8137108440779"><g transform="matrix(1,0,0,1,0,0)"><svg width="202.5736" viewBox="1.75 -35.349998474121094 125.19000244140625 35.64999771118164" height="57.68169999999999" data-palette-color="#096a2e"><path d="M1.75-17.5Q1.75-22.65 4.08-26.73 6.4-30.8 10.43-33.08 14.45-35.35 19.45-35.35L19.45-35.35Q25.3-35.35 29.7-32.35 34.1-29.35 35.85-24.05L35.85-24.05 27.8-24.05Q26.6-26.55 24.43-27.8 22.25-29.05 19.4-29.05L19.4-29.05Q16.35-29.05 13.98-27.63 11.6-26.2 10.28-23.6 8.95-21 8.95-17.5L8.95-17.5Q8.95-14.05 10.28-11.43 11.6-8.8 13.98-7.38 16.35-5.95 19.4-5.95L19.4-5.95Q22.25-5.95 24.43-7.23 26.6-8.5 27.8-11L27.8-11 35.85-11Q34.1-5.65 29.73-2.68 25.35 0.3 19.45 0.3L19.45 0.3Q14.45 0.3 10.43-1.98 6.4-4.25 4.08-8.3 1.75-12.35 1.75-17.5L1.75-17.5ZM70.4 0L61.55 0 48.85-15.55 48.85 0 41.85 0 41.85-34.9 48.85-34.9 48.85-19.25 61.55-34.9 70-34.9 55.6-17.6 70.4 0ZM75-34.9L82-34.9 82 0 75 0 75-34.9ZM119.04-34.9L126.94-34.9 126.94 0 119.94 0 119.94-22.7 110.59 0 105.29 0 95.89-22.7 95.89 0 88.89 0 88.89-34.9 96.84-34.9 107.94-8.95 119.04-34.9Z" opacity="1" transform="matrix(1,0,0,1,0,0)" fill="#096a2e" class="undefined-text-0" data-fill-palette-color="primary"></path></svg></g><g><svg xmlns="http://www.w3.org/2000/svg" xmlns:xlink="http://www.w3.org/1999/xlink" version="1.1" x="216.1919" y="0" viewBox="35.319000244140625 39.874000549316406 29.361000061035156 20.25299835205078" enable-background="new 0 0 100 100" xml:space="preserve" height="57.68169999999999" width="83.62181084407787" class="icon-s-0" data-fill-palette-color="accent" id="s-0"><g fill="#096a2e" data-fill-palette-color="accent"><polygon points="37.876,59.597 35.319,57.04 42.625,49.734 35.319,42.431 37.876,39.874 47.738,49.734  " fill="#096a2e" data-fill-palette-color="accent"></polygon></g><g fill="#096a2e" data-fill-palette-color="accent"><rect x="48.182" y="56.51" width="16.498" height="3.617" fill="#096a2e" data-fill-palette-color="accent"></rect></g></svg></g></svg></g></svg></g></svg></g></svg></g></svg></g><defs></defs></svg><rect width="299.8137108440779" height="57.68169999999999" fill="none" stroke="none" visibility="hidden"></rect></g></svg></g></svg>